<mxfile host="app.diagrams.net" modified="2022-08-08T15:00:16.045Z" agent="5.0 (Macintosh; Intel Mac OS X 10_15_7) AppleWebKit/537.36 (KHTML, like Gecko) Chrome/103.0.0.0 Safari/537.36" etag="xtkMCp7BYXJaUYa-9cOV" version="20.2.3" type="github">
  <diagram id="ca7FCz96mb77Rgv9Oxg2" name="第 1 页">
    <mxGraphModel dx="1094" dy="699" grid="1" gridSize="10" guides="1" tooltips="1" connect="1" arrows="1" fold="1" page="1" pageScale="1" pageWidth="827" pageHeight="1169" math="0" shadow="0">
      <root>
        <mxCell id="0" />
        <mxCell id="1" parent="0" />
        <mxCell id="QfI8yP7ecEmGW9KJSoAE-6" value="" style="edgeStyle=orthogonalEdgeStyle;rounded=0;orthogonalLoop=1;jettySize=auto;html=1;fontSize=14;" edge="1" parent="1" source="QfI8yP7ecEmGW9KJSoAE-1" target="QfI8yP7ecEmGW9KJSoAE-2">
          <mxGeometry relative="1" as="geometry" />
        </mxCell>
        <mxCell id="QfI8yP7ecEmGW9KJSoAE-1" value="任务逻辑入口" style="rounded=1;whiteSpace=wrap;html=1;fontSize=14;" vertex="1" parent="1">
          <mxGeometry x="354" y="120" width="120" height="60" as="geometry" />
        </mxCell>
        <mxCell id="QfI8yP7ecEmGW9KJSoAE-7" value="" style="edgeStyle=orthogonalEdgeStyle;rounded=0;orthogonalLoop=1;jettySize=auto;html=1;fontSize=14;" edge="1" parent="1" source="QfI8yP7ecEmGW9KJSoAE-2" target="QfI8yP7ecEmGW9KJSoAE-3">
          <mxGeometry relative="1" as="geometry" />
        </mxCell>
        <mxCell id="QfI8yP7ecEmGW9KJSoAE-2" value="任务结构构造" style="rounded=0;whiteSpace=wrap;html=1;fontSize=14;" vertex="1" parent="1">
          <mxGeometry x="354" y="230" width="120" height="60" as="geometry" />
        </mxCell>
        <mxCell id="QfI8yP7ecEmGW9KJSoAE-8" value="" style="edgeStyle=orthogonalEdgeStyle;rounded=0;orthogonalLoop=1;jettySize=auto;html=1;fontSize=14;" edge="1" parent="1" source="QfI8yP7ecEmGW9KJSoAE-3" target="QfI8yP7ecEmGW9KJSoAE-4">
          <mxGeometry relative="1" as="geometry" />
        </mxCell>
        <mxCell id="QfI8yP7ecEmGW9KJSoAE-3" value="差异初始化" style="rounded=0;whiteSpace=wrap;html=1;fontSize=14;" vertex="1" parent="1">
          <mxGeometry x="354" y="330" width="120" height="60" as="geometry" />
        </mxCell>
        <mxCell id="QfI8yP7ecEmGW9KJSoAE-9" value="" style="edgeStyle=orthogonalEdgeStyle;rounded=0;orthogonalLoop=1;jettySize=auto;html=1;fontSize=14;" edge="1" parent="1" source="QfI8yP7ecEmGW9KJSoAE-4" target="QfI8yP7ecEmGW9KJSoAE-5">
          <mxGeometry relative="1" as="geometry" />
        </mxCell>
        <mxCell id="QfI8yP7ecEmGW9KJSoAE-4" value="共性逻辑" style="rounded=0;whiteSpace=wrap;html=1;fontSize=14;" vertex="1" parent="1">
          <mxGeometry x="354" y="430" width="120" height="60" as="geometry" />
        </mxCell>
        <mxCell id="QfI8yP7ecEmGW9KJSoAE-5" value="结束" style="rounded=1;whiteSpace=wrap;html=1;fontSize=14;" vertex="1" parent="1">
          <mxGeometry x="354" y="540" width="120" height="60" as="geometry" />
        </mxCell>
      </root>
    </mxGraphModel>
  </diagram>
</mxfile>
